<svg xmlns="http://www.w3.org/2000/svg" xmlns:svg="http://www.w3.org/2000/svg" xmlns:xlink="http://www.w3.org/1999/xlink" id="svg4452" width="32mm" height="32mm" version="1.1" viewBox="0 0 32 32"><defs id="defs4446"><linearGradient id="linearGradient1408"><stop id="stop1404" offset="0" style="stop-color:#654fec;stop-opacity:1"/><stop id="stop1406" offset="1" style="stop-color:#6fa9fd;stop-opacity:1"/></linearGradient><marker style="overflow:visible" id="marker7818" orient="auto" refX="0" refY="0"><path transform="scale(0.4)" style="fill:#000;fill-opacity:1;fill-rule:evenodd;stroke:#000;stroke-width:1.00000003pt;stroke-opacity:1" id="path7816" d="M 5.77,0 -2.88,5 V -5 Z"/></marker><linearGradient id="linearGradient1093" x1="1.613" x2="112.327" y1="50.467" y2="50.467" gradientUnits="userSpaceOnUse" xlink:href="#linearGradient1408"/></defs><metadata id="metadata4449"/><g id="layer1" transform="translate(-105.70833,-231.10715)"><g id="layer1-9" transform="translate(69.673502,134.62517)"><path id="rect924" d="M 111.56916,22.667284 V 78.86657 c 0,3.077934 -2.4779,5.55583 -5.55584,5.55583 H 7.0676523 c -3.0779339,0 -5.5558375,-2.477896 -5.5558375,-5.55583 V 22.667283" transform="matrix(0.26458333,0,0,0.26458333,37.075158,97.73867)" style="opacity:1;fill:url(#linearGradient1093);fill-opacity:1;stroke:#000;stroke-width:3.02362204;stroke-linecap:round;stroke-linejoin:round;stroke-miterlimit:4;stroke-dasharray:none;stroke-dashoffset:0;stroke-opacity:1"/><path id="path2697" d="M 1.5118148,22.667283 V 7.0676561 c 0,-3.0779339 2.4779036,-5.5558375 5.5558375,-5.5558375 v 0 H 106.01332 c 3.07794,0 5.55584,2.4779036 5.55584,5.5558375 V 22.667284 Z" transform="matrix(0.26458333,0,0,0.26458333,37.075158,97.73867)" style="opacity:1;fill:#ececec;fill-opacity:1;stroke:#1a1a1a;stroke-width:3.02362204;stroke-linecap:round;stroke-linejoin:round;stroke-miterlimit:4;stroke-dasharray:none;stroke-dashoffset:0;stroke-opacity:1"/><circle id="path928" cx="40.85" cy="100.969" r=".969" style="opacity:1;fill:#74ffe6;fill-opacity:1;stroke:#1a1a1a;stroke-width:.80000001;stroke-linecap:round;stroke-linejoin:round;stroke-miterlimit:4;stroke-dasharray:none;stroke-dashoffset:0;stroke-opacity:1"/><circle id="path928-7" cx="44.553" cy="100.969" r=".969" style="opacity:1;fill:#74ffe6;fill-opacity:1;stroke:#1a1a1a;stroke-width:.80000001;stroke-linecap:round;stroke-linejoin:round;stroke-miterlimit:4;stroke-dasharray:none;stroke-dashoffset:0;stroke-opacity:1"/><circle id="path928-7-5" cx="48.296" cy="100.935" r=".969" style="opacity:1;fill:#74ffe6;fill-opacity:1;stroke:#1a1a1a;stroke-width:.80000001;stroke-linecap:round;stroke-linejoin:round;stroke-miterlimit:4;stroke-dasharray:none;stroke-dashoffset:0;stroke-opacity:1"/><path id="path966-5" d="m 50.456208,120.31984 v -5.17589 l 2.23371,-2.03581 v -3.38773 l -2.54737,-2.5791 v 4.26624 l -1.54701,1.02082 v 0 l -1.54701,-1.02082 v -4.26624 l -2.54738,2.5791 v 3.38773 l 2.23371,2.03581 v 4.76956" style="fill:#b3b3b3;fill-opacity:1;stroke:#1a1a1a;stroke-width:.80000001;stroke-linecap:round;stroke-linejoin:round;stroke-miterlimit:4;stroke-dasharray:none;stroke-opacity:1"/><path id="path998-6" d="m 59.197778,119.87474 v -5.81611 h -1.2048 v -3.37817 l 0.82683,-0.82682 -0.90553,-3.37945 h -0.7245 -0.10022 -0.7245 l -0.90552,3.37945 0.82682,0.82682 v 3.37817 h -1.2048 v 5.55152" style="fill:#b3b3b3;fill-opacity:1;stroke:#1a1a1a;stroke-width:.80000001;stroke-linecap:round;stroke-linejoin:round;stroke-miterlimit:4;stroke-dasharray:none;stroke-opacity:1"/><path id="path2059" d="m 39.346358,126.82529 v -1.50224 l 2.65845,-0.95522 0.15282,0.0124 2.30752,0.4633 1.11238,-2.68546 -1.95929,-1.30409 -0.11678,-0.0993 -1.20438,-2.55525 1.41458,-1.41459 2.55527,1.20437 0.0993,0.11679 1.30409,1.95929 2.68546,-1.11237 -0.4633,-2.30753 -0.0124,-0.15282 0.95522,-2.65845 h 2.00053 l 0.95522,2.65845 -0.0124,0.15282 -0.4633,2.30753 2.68546,1.11237 1.30408,-1.95929 0.0993,-0.11679 2.55527,-1.20437 1.41458,1.41459 -1.20438,2.55525 -0.11678,0.0993 -1.95929,1.30409 1.11238,2.68546 v 0 l 2.30752,-0.4633 0.15282,-0.0124 2.65845,0.95521 v 1.50225 z" style="fill:#e6e6e6;stroke:#1a1a1a;stroke-width:.80000001;stroke-miterlimit:4;stroke-dasharray:none"/><path id="path2062" d="m 47.901218,126.44191 a 3.9361856,3.9361856 0 0 1 -0.002,-0.11859 3.9361856,3.9361856 0 0 1 3.93619,-3.93619 3.9361856,3.9361856 0 0 1 3.93618,3.93619 v 0 a 3.9361856,3.9361856 0 0 1 -0.002,0.11857" style="fill:#f9f9f9;stroke:#1a1a1a;stroke-width:.80000001;stroke-miterlimit:4;stroke-dasharray:none"/></g><rect style="opacity:1;fill:none;fill-opacity:1;stroke:none;stroke-width:.85140848;stroke-linecap:round;stroke-linejoin:round;stroke-miterlimit:4;stroke-dasharray:none;stroke-dashoffset:3.62834644;stroke-opacity:1" id="rect1497" width="32" height="32" x="105.708" y="231.107"/></g></svg>