<svg xmlns="http://www.w3.org/2000/svg" xmlns:svg="http://www.w3.org/2000/svg" xmlns:xlink="http://www.w3.org/1999/xlink" id="svg138" width="415.863" height="416.161" version="1.1" viewBox="0 0 110.031 110.109"><defs id="defs135"><linearGradient id="linearGradient261"><stop style="stop-color:#2c245e;stop-opacity:1" id="stop257" offset="0"/><stop style="stop-color:#241f52;stop-opacity:1" id="stop299" offset="0"/><stop style="stop-color:#322864;stop-opacity:1" id="stop259" offset="1"/></linearGradient><linearGradient id="paint0_linear_21_62" x1="72.298" x2="13.442" y1="11.447" y2="69.721" gradientUnits="userSpaceOnUse"><stop id="stop8" stop-color="#4D29B4"/><stop id="stop10" offset="1" stop-color="#836FFF"/></linearGradient><linearGradient id="paint1_linear_21_62" x1="46.837" x2="87.572" y1="34.241" y2="-5.772" gradientUnits="userSpaceOnUse"><stop id="stop13" stop-color="#70FFE5"/><stop id="stop15" offset="1" stop-color="#6295E1"/></linearGradient><linearGradient id="paint2_linear_21_62" x1="68.903" x2="30.593" y1="18.237" y2="54.613" gradientUnits="userSpaceOnUse"><stop id="stop18" offset=".007" stop-color="#654FEC"/><stop id="stop20" offset="1" stop-color="#71B2FF"/></linearGradient><linearGradient id="linearGradient263" x1="35.127" x2="145.157" y1="124.544" y2="14.435" gradientUnits="userSpaceOnUse" xlink:href="#linearGradient261"/></defs><g id="layer1" transform="translate(-35.126873,-14.434821)"><rect style="fill:url(#linearGradient263);fill-opacity:1;stroke-width:.264583" id="rect225" width="110.031" height="110.109" x="35.127" y="14.435"/><g style="fill:none" id="g171" transform="matrix(0.90640964,0,0,0.90640964,50.628631,34.195479)"><g id="g32"><path id="path2" fill="url(#paint0_linear_21_62)" fill-rule="evenodd" d="m 71.1818,57.5936 c 0.9282,0 1.3931,1.1222 0.7367,1.7785 l -22.576,22.5744 c -0.6564,0.6563 -1.7787,0.1915 -1.7787,-0.7367 V 58.6354 c 0,-0.5754 0.4665,-1.0418 1.0419,-1.0418 z M 1.56578,36.3218 c -0.928241,0 -1.3931,-1.1222 -0.736735,-1.7785 L 23.4051,11.9689 c 0.6564,-0.6563 1.7786,-0.1915 1.7786,0.7367 V 35.28 c 0,0.5754 -0.4664,1.0418 -1.0419,1.0418 z" clip-rule="evenodd" style="fill:url(#paint0_linear_21_62)"/><path id="path4" fill="url(#paint1_linear_21_62)" d="m 50.7103,32.6168 h 30.2424 c 0.5754,0 1.0419,-0.4664 1.0419,-1.0418 V 1.33484 c 0,-0.575389 -0.4665,-1.041829 -1.0419,-1.041829 l -30.2424,-3e-6 c -0.5754,0 -1.0419,0.46644 -1.0419,1.041822 V 31.575 c 0,0.5754 0.4665,1.0418 1.0419,1.0418 z" style="fill:url(#paint1_linear_21_62)"/><path id="path6" fill="url(#paint2_linear_21_62)" d="M 73.1113,52.3844 H 31.4351 c -0.5754,0 -1.0419,-0.4664 -1.0419,-1.0418 V 9.66945 c 0,-0.57538 0.4665,-1.04182 1.0419,-1.04182 H 43.417 c 0.5754,0 1.0419,0.46644 1.0419,1.04182 V 36.757 c 0,0.5754 0.4665,1.0418 1.0419,1.0418 h 27.6105 c 0.5754,0 1.0419,0.4665 1.0419,1.0419 v 12.5019 c 0,0.5754 -0.4665,1.0418 -1.0419,1.0418 z" style="fill:url(#paint2_linear_21_62)"/></g></g></g></svg>