<svg xmlns="http://www.w3.org/2000/svg" xmlns:cc="http://web.resource.org/cc/" xmlns:xlink="http://www.w3.org/1999/xlink" id="svg249" width="48" height="48" version="1.0"><defs id="defs3"><linearGradient id="linearGradient3564" x1="94.693" x2="94.693" y1="112.51" y2="64.053" gradientTransform="matrix(.21718 0 0 .21718 51.567 -11.58)" gradientUnits="userSpaceOnUse" xlink:href="#linearGradient4126"/><linearGradient id="linearGradient3562" x1="59.729" x2="142.62" y1="102" y2="102" gradientTransform="matrix(.21718 0 0 .21718 51.567 -11.58)" gradientUnits="userSpaceOnUse"><stop id="stop4094" offset="0" stop-color="#3778ae"/><stop id="stop4096" offset="1" stop-color="#366c99"/></linearGradient><linearGradient id="linearGradient4126"><stop id="stop4128" offset="0" stop-color="#fff"/><stop id="stop4130" offset="1" stop-color="#fff" stop-opacity=".165"/></linearGradient><linearGradient id="linearGradient3560" x1="94.693" x2="94.693" y1="112.51" y2="64.053" gradientTransform="matrix(.21718 0 0 .21718 58.407 15.312)" gradientUnits="userSpaceOnUse" xlink:href="#linearGradient4126"/><linearGradient id="linearGradient3558" x1="119.19" x2="116.97" y1="89.13" y2="169.28" gradientTransform="matrix(.21718 0 0 .21718 52.213 9.1432)" gradientUnits="userSpaceOnUse"><stop id="stop4078" offset="0" stop-color="#ffe253"/><stop id="stop4080" offset="1" stop-color="#ffca1c"/></linearGradient><radialGradient id="radialGradient24190" cx="15.116" cy="63.965" r="12.289" gradientTransform="scale(1.644 .60828)" gradientUnits="userSpaceOnUse"><stop id="stop4116" offset="0"/><stop id="stop4118" offset="1" stop-opacity="0"/></radialGradient><linearGradient id="linearGradient8166" x1="33.396" x2="34.17" y1="36.921" y2="38.07" gradientTransform="matrix(-.032779 -.99946 .99946 -.032779 -.70965 45.063)" gradientUnits="userSpaceOnUse"><stop id="stop2253" offset="0" stop-color="#fff"/><stop id="stop2255" offset="1" stop-color="#fff" stop-opacity="0"/></linearGradient><linearGradient id="linearGradient269"><stop id="stop270" offset="0" stop-color="#a3a3a3"/><stop id="stop271" offset="1" stop-color="#8a8a8a"/></linearGradient><linearGradient id="linearGradient259"><stop id="stop260" offset="0" stop-color="#fafafa"/><stop id="stop261" offset="1" stop-color="#bbb"/></linearGradient><radialGradient id="radialGradient15656" cx="8.824" cy="3.756" r="37.752" gradientTransform="matrix(.96827 0 0 1.0328 3.3536 .64645)" gradientUnits="userSpaceOnUse" xlink:href="#linearGradient269"/><radialGradient id="radialGradient15658" cx="33.967" cy="35.737" r="86.708" gradientTransform="scale(.96049 1.0411)" gradientUnits="userSpaceOnUse" xlink:href="#linearGradient259"/><radialGradient id="radialGradient15668" cx="8.144" cy="7.268" r="38.159" gradientTransform="matrix(.96827 0 0 1.0328 3.3536 .64645)" gradientUnits="userSpaceOnUse"><stop id="stop15664" offset="0" stop-color="#fff"/><stop id="stop15666" offset="1" stop-color="#f8f8f8"/></radialGradient><radialGradient id="radialGradient5350" cx="31.863" cy="2.367" r="37.752" gradientTransform="matrix(.33174 -2.3449e-17 2.5011e-17 .35383 20.105 9.5823)" gradientUnits="userSpaceOnUse" xlink:href="#linearGradient269"/><radialGradient id="radialGradient5352" cx="30.654" cy="14.937" r="86.708" gradientTransform="matrix(.14836 .010091 -.011044 .16236 25.06 12.817)" gradientUnits="userSpaceOnUse" xlink:href="#linearGradient259"/><radialGradient id="radialGradient4796" cx="37.03" cy="12.989" r="4.293" gradientTransform="matrix(1.7447 2.3136e-22 -1.663e-22 1.2838 -26.583 -3.4784)" gradientUnits="userSpaceOnUse"><stop id="stop4792" offset="0"/><stop id="stop4794" offset="1" stop-opacity="0"/></radialGradient><linearGradient id="linearGradient3688"><stop id="stop3690" offset="0"/><stop id="stop3692" offset="1" stop-opacity="0"/></linearGradient><radialGradient id="radialGradient2088" cx="4.993" cy="43.5" r="2.5" gradientTransform="matrix(2.0038 0 0 1.4 27.988 -17.4)" gradientUnits="userSpaceOnUse" xlink:href="#linearGradient3688"/><radialGradient id="radialGradient2090" cx="4.993" cy="43.5" r="2.5" gradientTransform="matrix(2.0038 0 0 1.4 -20.012 -104.4)" gradientUnits="userSpaceOnUse" xlink:href="#linearGradient3688"/><linearGradient id="linearGradient2092" x1="25.058" x2="25.058" y1="47.028" y2="39.999" gradientUnits="userSpaceOnUse"><stop id="stop3704" offset="0" stop-opacity="0"/><stop id="stop3710" offset=".5"/><stop id="stop3706" offset="1" stop-opacity="0"/></linearGradient></defs><metadata id="metadata4"/><g id="layer6"><g id="g2033"><g id="g3712" opacity=".4" transform="matrix(1.0526 0 0 1.2857 -1.2632 -13.429)"><rect id="rect2801" width="5" height="7" x="38" y="40" fill="url(#radialGradient2088)" opacity="1"/><rect id="rect3696" width="5" height="7" x="-10" y="-47" fill="url(#radialGradient2090)" opacity="1" transform="scale(-1)"/><rect id="rect3700" width="28" height="7" x="10" y="40" fill="url(#linearGradient2092)" opacity="1"/></g></g></g><g id="layer1" stroke-linecap="round" stroke-linejoin="round"><path id="rect15391" style="color:#000" fill="url(#radialGradient15658)" stroke="url(#radialGradient15656)" d="m7.7526 3.6464l23.447-0.0156s10.279 9.5442 10.279 10.18v29.607c0 0.636-0.513 1.149-1.149 1.149h-32.577c-0.637 0-1.1494-0.513-1.1494-1.149v-38.622c0-0.6371 0.5124-1.1496 1.149-1.1496z" display="block"/><path id="rect15660" style="color:#000" fill="none" stroke="url(#radialGradient15668)" d="m7.8151 4.5839h24.876s7.751 8.0211 7.751 8.1041v30.693c0 0.083-0.067 0.149-0.149 0.149h-32.478c-0.0825 0-0.1489-0.066-0.1489-0.149v-38.648c0-0.0826 0.0664-0.1491 0.149-0.1491z" display="block"/></g><g id="layer5"><path id="path5348" opacity=".357" style="color:#000" fill="url(#radialGradient4796)" fill-rule="evenodd" d="m40.985 13.861c-0.728-1.346-6.103-3.73-8.9-4.5296 0.169 1.5726-0.123 6.3176-0.123 6.3176 2.062-1.375 8.242-1.95 9.023-1.788z"/><path id="path2210" fill="url(#radialGradient5352)" stroke="url(#radialGradient5350)" stroke-linejoin="round" style="color:#000" d="m41.411 13.739c0.013-1.415-6.353-10.207-10.236-10.104 0.973 0.2335 1.751 6.1685 0.361 8.981 2.75 0 8.911-0.735 9.875 1.123z" display="block"/><path id="path2247" style="color:#000" fill="none" stroke="url(#linearGradient8166)" d="m39.122 11.586c-0.729-1.346-4.159-5.0693-6.082-6.3064 0.239 1.4259 0.537 3.6825-0.078 6.2444 0 0 5.379-0.1 6.16 0.062z"/><g id="g5535" fill="#8d8d8d" fill-rule="evenodd" transform="translate(60)"><rect id="rect4819" width="16.772" opacity=".511" style="color:#000" height=".938" x="-49" y="9.063" rx=".469" ry=".469"/><rect id="rect4821" width="16.772" opacity=".511" style="color:#000" height=".938" x="-49" y="11.062" rx=".469" ry=".469"/><rect id="rect4823" width="16.772" opacity=".511" style="color:#000" height=".938" x="-49" y="13" rx=".469" ry=".469"/><rect id="rect4825" width="16.772" opacity=".511" style="color:#000" height=".938" x="-49" y="15.125" rx=".469" ry=".469"/><rect id="rect4827" width="26.125" opacity=".511" style="color:#000" height=".938" x="-49" y="19.062" rx=".469" ry=".469"/><rect id="rect4831" width="26.125" opacity=".511" style="color:#000" height=".938" x="-49" y="21.062" rx=".469" ry=".469"/><rect id="rect4833" width="26.125" opacity=".511" style="color:#000" height=".938" x="-49" y="23.062" rx=".469" ry=".469"/><rect id="rect4835" width="26.125" opacity=".511" style="color:#000" height=".938" x="-49" y="25.062" rx=".469" ry=".469"/><rect id="rect4837" width="26.125" opacity=".511" style="color:#000" height=".938" x="-49" y="27.062" rx=".469" ry=".469"/><rect id="rect4839" width="26.125" opacity=".511" style="color:#000" height=".938" x="-49" y="29.062" rx=".469" ry=".469"/><rect id="rect4841" width="26.125" opacity=".511" style="color:#000" height=".938" x="-49" y="31.062" rx=".469" ry=".469"/><rect id="rect4843" width="26.125" opacity=".511" style="color:#000" height=".938" x="-49" y="33.062" rx=".469" ry=".469"/><rect id="rect4845" width="26.125" opacity=".511" style="color:#000" height=".938" x="-49" y="35.062" rx=".469" ry=".469"/><rect id="rect4849" width="12.83" opacity=".511" style="color:#000" height=".938" x="-49" y="37.062" rx=".469" ry=".469"/><rect id="rect5533" width="26.125" opacity=".511" style="color:#000" height=".938" x="-49" y="17.062" rx=".469" ry=".469"/></g></g><g id="layer2"><path id="path4112" fill="url(#radialGradient24190)" d="m45.053 38.909a20.203 7.4751 0 1 1 -40.406 0 20.203 7.4751 0 1 1 40.406 0z" opacity=".396" transform="matrix(.70455 0 0 0.602 15.976 20.077)"/><g id="g3545" transform="translate(-44 -.99911)"><path id="path2732" fill="url(#linearGradient3558)" d="m83.187 43.251c0 1.676-1.455 2.525-2.932 2.949-2.222 0.638-4.005 0.541-5.862 0-1.55-0.452-2.932-1.375-2.932-2.949v-5.532c0-1.592 1.327-2.951 2.932-2.951l5.768-0.375c1.952 0 3.228-1.219 3.228-3.219l0.532-2.674h2.198c1.707 0 2.51 1.268 2.931 2.949 0.587 2.335 0.613 4.081 0 5.901-0.592 1.768-1.227 2.949-2.931 2.949h-2.932-5.862v-0.011h5.862v2.963z"/><path id="path2736" fill="#fff" d="m79.523 43.618c0-0.611 0.493-1.106 1.099-1.106 0.608 0 1.099 0.495 1.099 1.106 0 0.612-0.491 1.107-1.099 1.107-0.606 0-1.099-0.495-1.099-1.107z"/><path id="path2742" fill="url(#linearGradient3560)" d="m83.914 28.5v2.593c0 1.641-3.381 3.688-3.656 3.688h-5.75l-1.238 0.126c-1.261 0.323-1.109 1.148-1.481 2.686-0.138 0.57-0.242 1.104-0.312 1.594-0.005 0.035 0.005 0.059 0 0.094v1.625c3.836-4.28 7.927-4.603 9.969-4.594 4.073 0.018 5.992-0.983 7.937-3.187-0.006-0.044 0.007-0.082 0-0.125-0.075-0.491-0.206-1.016-0.344-1.563-0.197-0.788-0.455-1.481-0.875-2-0.008-0.01-0.022-0.021-0.031-0.031-0.005-0.004-0.026 0.004-0.031 0-0.014-0.017-0.017-0.046-0.031-0.063-0.03-0.02-0.033-0.042-0.063-0.062-0.007-0.008-0.024 0.008-0.031 0-0.444-0.288-0.984-0.503-1.531-0.594-0.496-0.082-0.994-0.144-1.5-0.187h-0.313-0.719z" opacity=".837"/><path id="path2744" fill="none" stroke="#bb9400" d="m83.481 43.251c0 1.676-1.749 2.525-3.226 2.949-2.222 0.638-4.005 0.541-5.862 0-1.55-0.452-2.932-1.375-2.932-2.949v-5.826c0-1.886 1.369-2.909 2.932-2.909l5.213-0.031c1.953 0 3.929-1.999 3.929-3.999v-1.986h2.584c1.707 0 2.51 1.268 2.931 2.949 0.587 2.335 0.613 4.081 0 5.901-0.592 1.768-1.227 3.159-2.931 3.159h-2.638-6.156v-0.012l6.156 0.021v2.733z"/><path id="path2746" fill="#fff" fill-opacity=".384" d="m84.037 29v1.468c0 2.286-2.351 4.561-4.591 4.561h-5.063c-1.322 0-2.406 1.375-2.406 2.689v5.532c0 0.641 0.228 1.119 0.687 1.531s1.15 0.726 1.875 0.937c1.79 0.522 3.422 0.616 5.563 0 0.695-0.199 1.62-0.576 2.085-0.979s0.802-0.796 0.802-1.489v-2.228h-5.668-0.5v-0.5-0.031-0.5h0.5 5.875 0.5v0.031h2.437c0.737 0 1.097-0.29 1.463-0.714s0.685-1.256 0.975-2.121c0.58-1.724 0.572-3.344 0-5.625-0.2-0.796-0.49-1.44-0.875-1.875-0.386-0.435-0.833-0.687-1.563-0.687h-2.096zm1 1h1.096c0.319 0 0.736 0.257 0.813 0.343 0.222 0.252 0.478 0.761 0.656 1.469 0.546 2.174 0.547 3.53 0.031 5.063-0.277 0.826-0.565 1.604-0.781 1.835-0.195 0.208-0.608 0.312-0.719 0.312h-1.437v-0.031h-1.5-5.875-1.5v1.5 0.031 1.5h1.5 4.668v1.228c0 0.446-0.597 0.723-0.7 0.812-0.299 0.259-0.829 0.513-1.437 0.688-1.978 0.568-3.375 0.482-5.031 0-0.627-0.183-1.17-0.451-1.469-0.719-0.007-0.006-0.024-0.025-0.031-0.031-0.043-0.041-0.094-0.092-0.125-0.125-0.03-0.035-0.073-0.094-0.094-0.125-0.012-0.019-0.048-0.069-0.063-0.094-0.015-0.035-0.022-0.086-0.031-0.125-0.006-0.032-0.028-0.09-0.031-0.125-0.003-0.045 0-0.105 0-0.156v-5.532c0-0.758 0.648-1.689 1.406-1.689h5.063c2.816 0 5.591-2.704 5.591-5.561v-0.468z"/><g id="g3534" transform="translate(.038609 19.855)"><path id="path2730" fill="url(#linearGradient3562)" d="m70.815 4.8256c0-1.6766 0.45-2.5887 2.932-3.0231 1.685-0.2953 3.846-0.3322 5.862 0 1.592 0.2628 2.932 1.4486 2.932 3.0231v5.5314c0 1.622-1.301 2.951-2.932 2.951l-5.316 0.294c-1.989 0-4.044 1.738-4.044 3.656l-0.168 2.318h-2.015c-1.705 0-2.697-1.229-3.114-2.949-0.563-2.311-0.539-3.688 0-5.901 0.466-1.9304 1.958-2.949 3.663-2.949h2.2 5.864v-0.0196h-5.864v-2.9318z"/><path id="path2734" fill="#fff" d="m72.281 4.4586c0-0.6124 0.491-1.1076 1.099-1.1076 0.606 0 1.099 0.4952 1.099 1.1076 0 0.6102-0.493 1.1054-1.099 1.1054-0.608 0-1.099-0.4952-1.099-1.1054z"/><path id="path2738" fill="url(#linearGradient3564)" d="m76.175 1.558c-0.868 0.021-1.701 0.1208-2.438 0.25-2.482 0.4344-2.906 1.3547-2.906 3.0312v2.9063h5.844v0.0313h-5.844-2.219c-1.705 0-3.189 1.0068-3.656 2.9372-0.317 1.303-0.461 2.322-0.406 3.406 3.861-4.3764 8.005-4.6963 10.062-4.687 4.073 0.018 5.992-0.9837 7.938-3.1875v-1.4063c0-1.5745-1.346-2.7684-2.938-3.0312-1.134-0.1869-2.322-0.277-3.437-0.25z" opacity=".377"/><path id="path3530" fill="none" stroke="#274e70" d="m70.481 4.8948c0-1.6766 1.749-2.5257 3.226-2.9492 2.221-0.6385 4.004-0.5408 5.861 0 1.551 0.4517 2.932 1.3747 2.932 2.9492v5.5312c0 1.592-1.327 3.204-2.932 3.204h-5.461c-1.533 0-3.68 1.687-3.68 3.687v2.328h-2.584c-1.707 0-2.511-1.268-2.932-2.949-0.586-2.335-0.612-4.081 0-5.901 0.593-1.7673 1.227-3.1586 2.932-3.1586h2.638 6.155v0.0116l-6.155-0.021v-2.7322z"/><path id="path3532" fill="#fff" fill-opacity=".165" d="m69.925 19.146v-1.716c0-2.286 2.083-4.314 4.324-4.314h5.329c1.323 0 2.407-1.375 2.407-2.689v-5.5314c0-0.641-0.229-1.1191-0.688-1.5312-0.459-0.4122-1.149-0.7261-1.875-0.9375-1.79-0.5213-3.422-0.6152-5.562 0-0.696 0.1993-1.62 0.5769-2.086 0.9797-0.465 0.4028-0.802 0.7954-0.802 1.489v2.2276h5.669 0.5v0.5 0.0313 0.5h-0.5-5.875-0.5v-0.0313h-2.438c-0.737 0-1.097 0.29-1.463 0.714s-0.684 1.2558-0.974 2.1208c-0.58 1.724-0.573 3.344 0 5.625 0.199 0.797 0.489 1.44 0.875 1.875 0.385 0.435 0.833 0.688 1.562 0.688h2.097zm-1-1h-1.097c-0.319 0-0.736-0.258-0.812-0.344-0.223-0.251-0.479-0.76-0.656-1.469-0.546-2.173-0.548-3.53-0.032-5.062 0.277-0.827 0.565-1.6046 0.782-1.8353 0.195-0.2082 0.608-0.3125 0.718-0.3125h1.438v0.0313h1.5 5.875 1.5v-1.5-0.0313-1.5h-1.5-4.669v-1.2276c0-0.4461 0.597-0.7235 0.7-0.8125 0.299-0.2589 0.829-0.513 1.438-0.6875 1.977-0.5684 3.375-0.4822 5.031 0 0.627 0.1826 1.17 0.4504 1.469 0.7188 0.007 0.0063 0.024 0.0247 0.031 0.0312 0.042 0.0405 0.094 0.0914 0.125 0.125 0.029 0.0352 0.073 0.0935 0.094 0.125 0.011 0.019 0.047 0.0691 0.062 0.0938 0.015 0.035 0.022 0.0859 0.031 0.125 0.007 0.032 0.028 0.0898 0.032 0.125 0.003 0.0451 0 0.1052 0 0.1562v5.5314c0 0.758-0.649 1.689-1.407 1.689h-5.329c-2.817 0-5.324 2.457-5.324 5.314v0.716z"/></g></g></g></svg>